M48
; DRILL file KiCad 10.0.0 date 2026-04-05T16:15:16
; FORMAT={-:-/ absolute / metric / decimal}
; #@! TF.CreationDate,2026-04-05T16:15:16-04:00
; #@! TF.GenerationSoftware,Kicad,Pcbnew,10.0.0
; #@! TF.FileFunction,Plated,1,2,PTH
FMAT,2
METRIC
; #@! TA.AperFunction,Plated,PTH,ViaDrill
T1C0.300
; #@! TA.AperFunction,Plated,PTH,ComponentDrill
T2C0.400
; #@! TA.AperFunction,Plated,PTH,ComponentDrill
T3C0.600
; #@! TA.AperFunction,Plated,PTH,ComponentDrill
T4C0.800
; #@! TA.AperFunction,Plated,PTH,ComponentDrill
T5C0.950
; #@! TA.AperFunction,Plated,PTH,ComponentDrill
T6C1.000
; #@! TA.AperFunction,Plated,PTH,ComponentDrill
T7C1.020
; #@! TA.AperFunction,Plated,PTH,ComponentDrill
T8C1.100
; #@! TA.AperFunction,Plated,PTH,ComponentDrill
T9C2.000
; #@! TA.AperFunction,Plated,PTH,ComponentDrill
T10C2.300
%
G90
G05
T1
X25.0Y-93.5
X28.0Y-94.5
X30.0Y-110.0
X37.0Y-120.5
X40.0Y-119.5
X55.0Y-102.5
X58.5Y-104.5
X61.0Y-78.0
X61.0Y-96.5
X61.0Y-104.0
X61.5Y-71.5
X61.6Y-69.0
X62.0Y-98.5
X62.5Y-90.0
X64.5Y-92.5
X65.0Y-91.0
X65.0Y-104.8
X72.0Y-78.5
X76.0Y-103.5
X77.5Y-102.5
X79.0Y-106.5
X80.0Y-95.0
X81.0Y-97.5
X81.5Y-105.0
X96.5Y-107.9
X96.5Y-109.5
T2
X50.85Y-121.14
X50.85Y-122.49
X51.7Y-121.14
X51.7Y-122.49
X52.55Y-121.14
X52.55Y-122.49
X53.4Y-121.14
X53.4Y-122.49
X54.25Y-121.14
X54.25Y-122.49
X55.1Y-121.14
X55.1Y-122.49
X55.95Y-121.14
X55.95Y-122.49
X56.8Y-121.14
X56.8Y-122.49
T4
X26.5Y-100.0
X26.5Y-110.16
X31.42Y-104.0
X41.58Y-104.0
X44.42Y-110.0
X49.0Y-115.5
X54.0Y-115.5
X54.58Y-110.0
X58.5Y-107.5
X58.5Y-117.66
X61.84Y-85.0
X63.5Y-114.42
X63.5Y-124.58
X65.84Y-106.5
X72.0Y-85.0
X76.0Y-106.5
X77.92Y-120.0
X78.92Y-88.5
X78.92Y-93.5
X79.92Y-125.5
X83.5Y-87.0
X88.08Y-120.0
X90.08Y-125.5
X90.5Y-51.653
X90.5Y-55.153
X91.92Y-107.5
X91.92Y-112.5
X93.66Y-87.0
X115.847Y-112.5
X119.347Y-112.5
T5
X36.0Y-116.64
X38.5Y-116.64
X40.5Y-116.64
X43.0Y-116.64
T6
X63.5Y-54.5
X63.5Y-57.04
X64.0Y-63.3
X64.0Y-65.84
X64.0Y-68.38
X64.0Y-70.92
X64.0Y-73.46
X64.0Y-76.0
X64.0Y-78.54
X69.92Y-91.0
X69.92Y-93.54
X72.5Y-51.0
X72.96Y-113.0
X75.04Y-51.0
X75.5Y-113.0
X78.04Y-113.0
X80.58Y-113.0
X82.0Y-50.735
X82.0Y-53.275
X86.92Y-91.96
X86.92Y-94.5
X107.46Y-108.5
X110.0Y-108.5
T7
X32.8Y-58.485
X32.8Y-61.025
X32.8Y-63.565
X32.8Y-66.105
X32.8Y-68.645
X32.8Y-71.185
X32.8Y-73.725
X32.8Y-76.265
X32.8Y-78.805
X32.8Y-81.345
X32.8Y-83.885
X32.8Y-86.425
X32.8Y-88.965
X32.8Y-91.505
X32.8Y-94.045
X58.2Y-58.485
X58.2Y-61.025
X58.2Y-63.565
X58.2Y-66.105
X58.2Y-68.645
X58.2Y-71.185
X58.2Y-73.725
X58.2Y-76.265
X58.2Y-78.805
X58.2Y-81.345
X58.2Y-83.885
X58.2Y-86.425
X58.2Y-88.965
X58.2Y-91.505
X58.2Y-94.045
T8
X67.92Y-102.0
X68.42Y-57.5
X70.46Y-102.0
X73.0Y-102.0
X78.58Y-57.5
X84.92Y-101.5
X87.46Y-101.5
X90.0Y-101.5
X97.0Y-116.0
X97.0Y-118.5
X97.0Y-121.0
X111.5Y-116.0
X111.5Y-121.0
T10
X32.93Y-119.35
X46.07Y-119.35
T3
X49.5Y-121.37G85X49.5Y-122.87
G05
X49.5Y-125.1G85X49.5Y-125.9
G05
X58.15Y-121.37G85X58.15Y-122.87
G05
X58.15Y-125.1G85X58.15Y-125.9
G05
T9
X104.9Y-112.8G85X104.1Y-112.8
G05
X104.9Y-124.2G85X104.1Y-124.2
G05
M30
