%TF.GenerationSoftware,KiCad,Pcbnew,10.0.0*%
%TF.CreationDate,2026-04-05T16:14:45-04:00*%
%TF.ProjectId,desk_box,6465736b-5f62-46f7-982e-6b696361645f,rev?*%
%TF.SameCoordinates,Original*%
%TF.FileFunction,Copper,L1,Top*%
%TF.FilePolarity,Positive*%
%FSLAX46Y46*%
G04 Gerber Fmt 4.6, Leading zero omitted, Abs format (unit mm)*
G04 Created by KiCad (PCBNEW 10.0.0) date 2026-04-05 16:14:45*
%MOMM*%
%LPD*%
G01*
G04 APERTURE LIST*
G04 Aperture macros list*
%AMRoundRect*
0 Rectangle with rounded corners*
0 $1 Rounding radius*
0 $2 $3 $4 $5 $6 $7 $8 $9 X,Y pos of 4 corners*
0 Add a 4 corners polygon primitive as box body*
4,1,4,$2,$3,$4,$5,$6,$7,$8,$9,$2,$3,0*
0 Add four circle primitives for the rounded corners*
1,1,$1+$1,$2,$3*
1,1,$1+$1,$4,$5*
1,1,$1+$1,$6,$7*
1,1,$1+$1,$8,$9*
0 Add four rect primitives between the rounded corners*
20,1,$1+$1,$2,$3,$4,$5,0*
20,1,$1+$1,$4,$5,$6,$7,0*
20,1,$1+$1,$6,$7,$8,$9,0*
20,1,$1+$1,$8,$9,$2,$3,0*%
G04 Aperture macros list end*
%TA.AperFunction,ComponentPad*%
%ADD10C,1.600000*%
%TD*%
%TA.AperFunction,ComponentPad*%
%ADD11RoundRect,0.250000X-0.550000X-0.550000X0.550000X-0.550000X0.550000X0.550000X-0.550000X0.550000X0*%
%TD*%
%TA.AperFunction,ComponentPad*%
%ADD12RoundRect,0.250000X-0.550000X-0.500000X0.550000X-0.500000X0.550000X0.500000X-0.550000X0.500000X0*%
%TD*%
%TA.AperFunction,ComponentPad*%
%ADD13C,3.000000*%
%TD*%
%TA.AperFunction,ComponentPad*%
%ADD14C,0.650000*%
%TD*%
%TA.AperFunction,ComponentPad*%
%ADD15O,0.900000X1.700000*%
%TD*%
%TA.AperFunction,ComponentPad*%
%ADD16O,0.900000X2.400000*%
%TD*%
%TA.AperFunction,ComponentPad*%
%ADD17C,1.700000*%
%TD*%
%TA.AperFunction,ComponentPad*%
%ADD18R,1.700000X1.700000*%
%TD*%
%TA.AperFunction,ComponentPad*%
%ADD19O,6.000000X3.000000*%
%TD*%
%TA.AperFunction,ComponentPad*%
%ADD20C,1.650000*%
%TD*%
%TA.AperFunction,ComponentPad*%
%ADD21R,1.650000X1.650000*%
%TD*%
%TA.AperFunction,ComponentPad*%
%ADD22C,2.000000*%
%TD*%
%TA.AperFunction,ComponentPad*%
%ADD23R,2.000000X2.000000*%
%TD*%
%TA.AperFunction,ComponentPad*%
%ADD24R,1.905000X2.000000*%
%TD*%
%TA.AperFunction,ComponentPad*%
%ADD25O,1.905000X2.000000*%
%TD*%
%TA.AperFunction,ComponentPad*%
%ADD26RoundRect,0.249999X0.850001X0.850001X-0.850001X0.850001X-0.850001X-0.850001X0.850001X-0.850001X0*%
%TD*%
%TA.AperFunction,ComponentPad*%
%ADD27C,2.200000*%
%TD*%
%TA.AperFunction,ComponentPad*%
%ADD28RoundRect,0.250000X0.550000X-0.550000X0.550000X0.550000X-0.550000X0.550000X-0.550000X-0.550000X0*%
%TD*%
%TA.AperFunction,ViaPad*%
%ADD29C,0.600000*%
%TD*%
%TA.AperFunction,Conductor*%
%ADD30C,0.200000*%
%TD*%
G04 APERTURE END LIST*
D10*
%TO.P,R5,2*%
%TO.N,Net-(X1-CC1)*%
X54580000Y-110000000D03*
%TO.P,R5,1*%
%TO.N,GND*%
X44420000Y-110000000D03*
%TD*%
%TO.P,C3,2*%
%TO.N,GND*%
X119347349Y-112500000D03*
D11*
%TO.P,C3,1*%
%TO.N,+5V*%
X115847349Y-112500000D03*
%TD*%
D10*
%TO.P,C1,2*%
%TO.N,GND*%
X91920000Y-107500000D03*
%TO.P,C1,1*%
%TO.N,+5V*%
X91920000Y-112500000D03*
%TD*%
%TO.P,C4,1*%
%TO.N,+5V*%
X78920000Y-88500000D03*
%TO.P,C4,2*%
%TO.N,GND*%
X78920000Y-93500000D03*
%TD*%
%TO.P,R4,1*%
%TO.N,+3.3V*%
X79920000Y-125500000D03*
%TO.P,R4,2*%
%TO.N,/ENC_SW*%
X90080000Y-125500000D03*
%TD*%
D12*
%TO.P,J10,1,VBUS_1*%
%TO.N,+5V*%
X36000000Y-116640000D03*
D10*
%TO.P,J10,2,D-_2*%
%TO.N,Net-(J10-D+)*%
X38500000Y-116640000D03*
%TO.P,J10,3,D+_3*%
X40500000Y-116640000D03*
%TO.P,J10,4,GND_4*%
%TO.N,GND*%
X43000000Y-116640000D03*
D13*
%TO.P,J10,SH,Shield_SH*%
X32930000Y-119350000D03*
X46070000Y-119350000D03*
%TD*%
D14*
%TO.P,X1,A1,GND_A1*%
%TO.N,GND*%
X50850000Y-121140000D03*
%TO.P,X1,A4,VBUS_A4*%
%TO.N,+5V*%
X51700000Y-121140000D03*
%TO.P,X1,A5,CC1_A5*%
%TO.N,Net-(X1-CC1)*%
X52550000Y-121140000D03*
%TO.P,X1,A6,DP1_A6*%
%TO.N,unconnected-(X1-DP1-PadA6)*%
X53400000Y-121140000D03*
%TO.P,X1,A7,DN1_A7*%
%TO.N,unconnected-(X1-DN1-PadA7)*%
X54250000Y-121140000D03*
%TO.P,X1,A8,SBU1_A8*%
%TO.N,unconnected-(X1-SBU1-PadA8)*%
X55100000Y-121140000D03*
%TO.P,X1,A9,VBUS_A9*%
%TO.N,+5V*%
X55950000Y-121140000D03*
%TO.P,X1,A12,GND_A12*%
%TO.N,GND*%
X56800000Y-121140000D03*
%TO.P,X1,B1,GND_B1*%
X56800000Y-122490000D03*
%TO.P,X1,B4,VBUS_B4*%
%TO.N,+5V*%
X55950000Y-122490000D03*
%TO.P,X1,B5,CC2_B5*%
%TO.N,Net-(X1-CC2)*%
X55100000Y-122490000D03*
%TO.P,X1,B6,DP2_B6*%
%TO.N,unconnected-(X1-DP2-PadB6)*%
X54250000Y-122490000D03*
%TO.P,X1,B7,DN2_B7*%
%TO.N,unconnected-(X1-DN2-PadB7)*%
X53400000Y-122490000D03*
%TO.P,X1,B8,SBU2_B8*%
%TO.N,unconnected-(X1-SBU2-PadB8)*%
X52550000Y-122490000D03*
%TO.P,X1,B9,VBUS_B9*%
%TO.N,+5V*%
X51700000Y-122490000D03*
%TO.P,X1,B12,GND_B12*%
%TO.N,GND*%
X50850000Y-122490000D03*
D15*
%TO.P,X1,S1,SHELL_S1*%
X49500000Y-125500000D03*
%TO.P,X1,S2,SHELL_S2*%
X58150000Y-125500000D03*
D16*
%TO.P,X1,S3,SHELL_S3*%
X49500000Y-122120000D03*
%TO.P,X1,S4,SHELL_S4*%
X58150000Y-122120000D03*
%TD*%
D10*
%TO.P,R1,2*%
%TO.N,Net-(U1-EN)*%
X63500000Y-114420000D03*
%TO.P,R1,1*%
%TO.N,+3.3V*%
X63500000Y-124580000D03*
%TD*%
%TO.P,R2,2*%
%TO.N,/ENC_B*%
X88080000Y-120000000D03*
%TO.P,R2,1*%
%TO.N,+3.3V*%
X77920000Y-120000000D03*
%TD*%
D17*
%TO.P,J9,4,Pin_4_4*%
%TO.N,/I2C_SDA*%
X80580000Y-113000000D03*
%TO.P,J9,3,Pin_3_3*%
%TO.N,/I2C_SCL*%
X78040000Y-113000000D03*
%TO.P,J9,2,Pin_2_2*%
%TO.N,GND*%
X75500000Y-113000000D03*
D18*
%TO.P,J9,1,Pin_1_1*%
%TO.N,+3.3V*%
X72960000Y-113000000D03*
%TD*%
D19*
%TO.P,MT1,S2,SHIELD_S2*%
%TO.N,GND*%
X104500000Y-124200000D03*
%TO.P,MT1,S1,SHIELD_S1*%
X104500000Y-112800000D03*
D20*
%TO.P,MT1,B,B_B*%
%TO.N,/ENC_B*%
X97000000Y-121000000D03*
%TO.P,MT1,COM,COM_COM*%
%TO.N,GND*%
X97000000Y-118500000D03*
%TO.P,MT1,A,A_A*%
%TO.N,/ENC_A*%
X97000000Y-116000000D03*
%TO.P,MT1,2*%
%TO.N,/ENC_SW*%
X111500000Y-121000000D03*
D21*
%TO.P,MT1,1*%
%TO.N,GND*%
X111500000Y-116000000D03*
%TD*%
D17*
%TO.P,J6,2,Pin_2_2*%
%TO.N,+12V*%
X69920000Y-91000000D03*
D18*
%TO.P,J6,1,Pin_1_1*%
%TO.N,Net-(J6-Pin_1)*%
X69920000Y-93540000D03*
%TD*%
D22*
%TO.P,U1,16,EN_16*%
%TO.N,Net-(U1-EN)*%
X58200000Y-94045000D03*
%TO.P,U1,17,VP_17*%
%TO.N,unconnected-(U1-VP-Pad17)*%
X58200000Y-91505000D03*
%TO.P,U1,18,VN_18*%
%TO.N,unconnected-(U1-VN-Pad18)*%
X58200000Y-88965000D03*
%TO.P,U1,19,D34_19*%
%TO.N,/ENC_A*%
X58200000Y-86425000D03*
%TO.P,U1,20,D35_20*%
%TO.N,/ENC_B*%
X58200000Y-83885000D03*
%TO.P,U1,21,D32_21*%
%TO.N,/ENC_SW*%
X58200000Y-81345000D03*
%TO.P,U1,22,D33_22*%
%TO.N,unconnected-(U1-D33-Pad22)*%
X58200000Y-78805000D03*
%TO.P,U1,23,D25_23*%
%TO.N,/I2S_BCLK*%
X58200000Y-76265000D03*
%TO.P,U1,24,D26_24*%
%TO.N,/I2S_LRC*%
X58200000Y-73725000D03*
%TO.P,U1,25,D27_25*%
%TO.N,/I2S_DIN*%
X58200000Y-71185000D03*
%TO.P,U1,26,D14_26*%
%TO.N,unconnected-(U1-D14-Pad26)*%
X58200000Y-68645000D03*
%TO.P,U1,27,D12_27*%
%TO.N,unconnected-(U1-D12-Pad27)*%
X58200000Y-66105000D03*
%TO.P,U1,28,D13_28*%
%TO.N,unconnected-(U1-D13-Pad28)*%
X58200000Y-63565000D03*
%TO.P,U1,29,GND_29*%
%TO.N,GND*%
X58200000Y-61025000D03*
%TO.P,U1,30,VIN_30*%
%TO.N,+5V*%
X58200000Y-58485000D03*
%TO.P,U1,15,D23_15*%
%TO.N,unconnected-(U1-D23-Pad15)*%
X32800000Y-94045000D03*
%TO.P,U1,14,D22_14*%
%TO.N,/I2C_SCL*%
X32800000Y-91505000D03*
%TO.P,U1,13,TX0_13*%
%TO.N,unconnected-(U1-TX0-Pad13)*%
X32800000Y-88965000D03*
%TO.P,U1,12,RX0_12*%
%TO.N,unconnected-(U1-RX0-Pad12)*%
X32800000Y-86425000D03*
%TO.P,U1,11,D21_11*%
%TO.N,/I2C_SDA*%
X32800000Y-83885000D03*
%TO.P,U1,10,D19_10*%
%TO.N,/LED_COOL*%
X32800000Y-81345000D03*
%TO.P,U1,9,D18_9*%
%TO.N,/LED_WARM*%
X32800000Y-78805000D03*
%TO.P,U1,8,D5_8*%
%TO.N,unconnected-(U1-D5-Pad8)*%
X32800000Y-76265000D03*
%TO.P,U1,7,TX2_7*%
%TO.N,unconnected-(U1-TX2-Pad7)*%
X32800000Y-73725000D03*
%TO.P,U1,6,RX2_6*%
%TO.N,unconnected-(U1-RX2-Pad6)*%
X32800000Y-71185000D03*
%TO.P,U1,5,D4_5*%
%TO.N,unconnected-(U1-D4-Pad5)*%
X32800000Y-68645000D03*
%TO.P,U1,4,D2_4*%
%TO.N,unconnected-(U1-D2-Pad4)*%
X32800000Y-66105000D03*
%TO.P,U1,3,D15_3*%
%TO.N,unconnected-(U1-D15-Pad3)*%
X32800000Y-63565000D03*
%TO.P,U1,2,GND_2*%
%TO.N,GND*%
X32800000Y-61025000D03*
D23*
%TO.P,U1,1,3V3_1*%
%TO.N,+3.3V*%
X32800000Y-58485000D03*
%TD*%
D10*
%TO.P,R10,1*%
%TO.N,Net-(Q2-G)*%
X65840000Y-106500000D03*
%TO.P,R10,2*%
%TO.N,GND*%
X76000000Y-106500000D03*
%TD*%
%TO.P,R9,1*%
%TO.N,/LED_COOL*%
X26500000Y-100000000D03*
%TO.P,R9,2*%
%TO.N,Net-(Q2-G)*%
X26500000Y-110160000D03*
%TD*%
%TO.P,R8,1*%
%TO.N,/LED_WARM*%
X31420000Y-104000000D03*
%TO.P,R8,2*%
%TO.N,Net-(Q1-G)*%
X41580000Y-104000000D03*
%TD*%
%TO.P,R7,1*%
%TO.N,Net-(Q1-G)*%
X93660000Y-87000000D03*
%TO.P,R7,2*%
%TO.N,GND*%
X83500000Y-87000000D03*
%TD*%
%TO.P,R6,1*%
%TO.N,GND*%
X58500000Y-107500000D03*
%TO.P,R6,2*%
%TO.N,Net-(X1-CC2)*%
X58500000Y-117660000D03*
%TD*%
%TO.P,R3,1*%
%TO.N,+3.3V*%
X72000000Y-85000000D03*
%TO.P,R3,2*%
%TO.N,/ENC_A*%
X61840000Y-85000000D03*
%TD*%
D24*
%TO.P,Q2,1,G_1*%
%TO.N,Net-(Q2-G)*%
X67920000Y-102000000D03*
D25*
%TO.P,Q2,2,D_2*%
%TO.N,Net-(J6-Pin_1)*%
X70460000Y-102000000D03*
%TO.P,Q2,3,S_3*%
%TO.N,GND*%
X73000000Y-102000000D03*
%TD*%
D24*
%TO.P,Q1,1,G_1*%
%TO.N,Net-(Q1-G)*%
X84920000Y-101500000D03*
D25*
%TO.P,Q1,2,D_2*%
%TO.N,Net-(J5-Pin_1)*%
X87460000Y-101500000D03*
%TO.P,Q1,3,S_3*%
%TO.N,GND*%
X90000000Y-101500000D03*
%TD*%
D18*
%TO.P,J7,1,Pin_1_1*%
%TO.N,+5V*%
X64000000Y-78540000D03*
D17*
%TO.P,J7,2,Pin_2_2*%
%TO.N,GND*%
X64000000Y-76000000D03*
%TO.P,J7,3,Pin_3_3*%
%TO.N,+3.3V*%
X64000000Y-73460000D03*
%TO.P,J7,4,Pin_4_4*%
%TO.N,unconnected-(J7-Pin_4-Pad4)*%
X64000000Y-70920000D03*
%TO.P,J7,5,Pin_5_5*%
%TO.N,/I2S_DIN*%
X64000000Y-68380000D03*
%TO.P,J7,6,Pin_6_6*%
%TO.N,/I2S_BCLK*%
X64000000Y-65840000D03*
%TO.P,J7,7,Pin_7_7*%
%TO.N,/I2S_LRC*%
X64000000Y-63300000D03*
%TD*%
D18*
%TO.P,J5,1,Pin_1_1*%
%TO.N,Net-(J5-Pin_1)*%
X86920000Y-91960000D03*
D17*
%TO.P,J5,2,Pin_2_2*%
%TO.N,+12V*%
X86920000Y-94500000D03*
%TD*%
D18*
%TO.P,J4,1,Pin_1_1*%
%TO.N,/SPK_P*%
X63500000Y-54500000D03*
D17*
%TO.P,J4,2,Pin_2_2*%
%TO.N,/SPK_N*%
X63500000Y-57040000D03*
%TD*%
D18*
%TO.P,J3,1,Pin_1_1*%
%TO.N,+5V*%
X107460000Y-108500000D03*
D17*
%TO.P,J3,2,Pin_2_2*%
%TO.N,GND*%
X110000000Y-108500000D03*
%TD*%
D18*
%TO.P,J2,1,Pin_1_1*%
%TO.N,+12V*%
X82000000Y-53275000D03*
D17*
%TO.P,J2,2,Pin_2_2*%
%TO.N,GND*%
X82000000Y-50735000D03*
%TD*%
D18*
%TO.P,J1,1*%
%TO.N,Net-(D1-A)*%
X72500000Y-51000000D03*
D17*
%TO.P,J1,2*%
%TO.N,GND*%
X75040000Y-51000000D03*
%TD*%
D26*
%TO.P,D1,1,K_1*%
%TO.N,+12V*%
X78580000Y-57500000D03*
D27*
%TO.P,D1,2,A_2*%
%TO.N,Net-(D1-A)*%
X68420000Y-57500000D03*
%TD*%
D10*
%TO.P,C5,1*%
%TO.N,+5V*%
X54000000Y-115500000D03*
%TO.P,C5,2*%
%TO.N,GND*%
X49000000Y-115500000D03*
%TD*%
D28*
%TO.P,C2,1*%
%TO.N,+12V*%
X90500000Y-55152651D03*
D10*
%TO.P,C2,2*%
%TO.N,GND*%
X90500000Y-51652651D03*
%TD*%
D29*
%TO.N,Net-(Q2-G)*%
X61000000Y-104000000D03*
X65000000Y-104800000D03*
%TO.N,Net-(Q1-G)*%
X81500000Y-105000000D03*
X79000000Y-106500000D03*
X58500000Y-104500000D03*
X55000000Y-102500000D03*
%TO.N,/LED_WARM*%
X28000000Y-94500000D03*
X25000000Y-93500000D03*
%TO.N,Net-(U1-EN)*%
X61000000Y-96500000D03*
X62000000Y-98500000D03*
%TO.N,Net-(Q2-G)*%
X30000000Y-110000000D03*
%TO.N,/ENC_A*%
X65000000Y-91000000D03*
%TO.N,/ENC_B*%
X62500000Y-90000000D03*
X64500000Y-92500000D03*
%TO.N,/I2S_BCLK*%
X61500000Y-71500000D03*
X61600000Y-69000000D03*
%TO.N,GND*%
X40000000Y-119500000D03*
X37000000Y-120500000D03*
X77500000Y-102500000D03*
X76000000Y-103500000D03*
X96500000Y-107900000D03*
X96500000Y-109500000D03*
X80000000Y-95000000D03*
X81000000Y-97500000D03*
X61000000Y-78000000D03*
%TO.N,+3.3V*%
X72000000Y-78500000D03*
%TD*%
%TO.N,Net-(J10-D+)*%
D30*
X38500000Y-116640000D02*
X40500000Y-116640000D01*
%TO.N,Net-(X1-CC1)*%
X52550000Y-112030000D02*
X54580000Y-110000000D01*
X52550000Y-121140000D02*
X52550000Y-112030000D01*
%TO.N,Net-(Q2-G)*%
X65000000Y-105660000D02*
X65840000Y-106500000D01*
X65000000Y-104800000D02*
X65000000Y-105660000D01*
X63000000Y-102000000D02*
X61000000Y-104000000D01*
X67920000Y-102000000D02*
X63000000Y-102000000D01*
%TO.N,GND*%
X62000000Y-104000000D02*
X58500000Y-107500000D01*
X71000000Y-104000000D02*
X62000000Y-104000000D01*
X73000000Y-102000000D02*
X71000000Y-104000000D01*
%TO.N,Net-(Q2-G)*%
X67920000Y-102000000D02*
X67920000Y-102480000D01*
%TO.N,Net-(Q1-G)*%
X81500000Y-104920000D02*
X84920000Y-101500000D01*
X81500000Y-105000000D02*
X81500000Y-104920000D01*
X79000000Y-105651471D02*
X79000000Y-106500000D01*
X62300000Y-100700000D02*
X74048529Y-100700000D01*
X58500000Y-104500000D02*
X62300000Y-100700000D01*
X74048529Y-100700000D02*
X79000000Y-105651471D01*
X43080000Y-102500000D02*
X55000000Y-102500000D01*
X41580000Y-104000000D02*
X43080000Y-102500000D01*
%TO.N,/LED_WARM*%
X31420000Y-97920000D02*
X31420000Y-104000000D01*
X25000000Y-86605000D02*
X25000000Y-93500000D01*
X32800000Y-78805000D02*
X25000000Y-86605000D01*
X28000000Y-94500000D02*
X31420000Y-97920000D01*
%TO.N,Net-(U1-EN)*%
X60155000Y-96000000D02*
X58200000Y-94045000D01*
X60500000Y-96000000D02*
X60155000Y-96000000D01*
X61000000Y-96500000D02*
X60500000Y-96000000D01*
X57400000Y-103100000D02*
X62000000Y-98500000D01*
X57400000Y-108320000D02*
X57400000Y-103100000D01*
X63500000Y-114420000D02*
X57400000Y-108320000D01*
%TO.N,Net-(Q2-G)*%
X29840000Y-110160000D02*
X30000000Y-110000000D01*
X26500000Y-110160000D02*
X29840000Y-110160000D01*
%TO.N,/LED_COOL*%
X26500000Y-87645000D02*
X26500000Y-100000000D01*
X32800000Y-81345000D02*
X26500000Y-87645000D01*
%TO.N,/ENC_SW*%
X36490000Y-92943578D02*
X48088578Y-81345000D01*
X31130000Y-118604415D02*
X36490000Y-113244415D01*
X31130000Y-120095585D02*
X31130000Y-118604415D01*
X37684415Y-126650000D02*
X31130000Y-120095585D01*
X88930000Y-126650000D02*
X37684415Y-126650000D01*
X48088578Y-81345000D02*
X58200000Y-81345000D01*
X90080000Y-125500000D02*
X88930000Y-126650000D01*
X36490000Y-113244415D02*
X36490000Y-92943578D01*
X90580000Y-126000000D02*
X90080000Y-125500000D01*
X107666726Y-126000000D02*
X90580000Y-126000000D01*
X111500000Y-122166726D02*
X107666726Y-126000000D01*
X111500000Y-121000000D02*
X111500000Y-122166726D01*
%TO.N,/ENC_A*%
X65000000Y-88160000D02*
X65000000Y-91000000D01*
X61840000Y-85000000D02*
X65000000Y-88160000D01*
X59625000Y-85000000D02*
X61840000Y-85000000D01*
X58200000Y-86425000D02*
X59625000Y-85000000D01*
%TO.N,/ENC_B*%
X62500000Y-90500000D02*
X62500000Y-90000000D01*
X64500000Y-92500000D02*
X62500000Y-90500000D01*
%TO.N,/I2S_BCLK*%
X61600000Y-71400000D02*
X61500000Y-71500000D01*
X61600000Y-69000000D02*
X61600000Y-71400000D01*
%TO.N,GND*%
X49500000Y-125500000D02*
X58150000Y-125500000D01*
X39080000Y-125500000D02*
X32930000Y-119350000D01*
X49500000Y-125500000D02*
X39080000Y-125500000D01*
X40140000Y-119500000D02*
X40000000Y-119500000D01*
X43000000Y-116640000D02*
X40140000Y-119500000D01*
X35850000Y-119350000D02*
X37000000Y-120500000D01*
X32930000Y-119350000D02*
X35850000Y-119350000D01*
X46070000Y-118430000D02*
X49000000Y-115500000D01*
X46070000Y-119350000D02*
X46070000Y-118430000D01*
X45710000Y-119350000D02*
X46070000Y-119350000D01*
X43000000Y-116640000D02*
X45710000Y-119350000D01*
X44420000Y-115220000D02*
X43000000Y-116640000D01*
X44420000Y-110000000D02*
X44420000Y-115220000D01*
X81000000Y-99000000D02*
X77500000Y-102500000D01*
X81000000Y-97500000D02*
X81000000Y-99000000D01*
X74500000Y-102000000D02*
X76000000Y-103500000D01*
X73000000Y-102000000D02*
X74500000Y-102000000D01*
X76000000Y-105000000D02*
X73000000Y-102000000D01*
X76000000Y-106500000D02*
X76000000Y-105000000D01*
X76000000Y-107000000D02*
X75500000Y-107500000D01*
X76000000Y-106500000D02*
X76000000Y-107000000D01*
X75500000Y-107500000D02*
X75500000Y-113000000D01*
X104500000Y-124200000D02*
X98800000Y-118500000D01*
X115847349Y-116000000D02*
X119347349Y-112500000D01*
X111500000Y-116000000D02*
X115847349Y-116000000D01*
X108000000Y-116000000D02*
X111500000Y-116000000D01*
X104800000Y-112800000D02*
X108000000Y-116000000D01*
X104500000Y-112800000D02*
X104800000Y-112800000D01*
X108850000Y-107350000D02*
X110000000Y-108500000D01*
X97050000Y-107350000D02*
X108850000Y-107350000D01*
X96500000Y-107900000D02*
X97050000Y-107350000D01*
X98800000Y-118500000D02*
X104500000Y-112800000D01*
X97000000Y-118500000D02*
X98800000Y-118500000D01*
X95875000Y-117375000D02*
X97000000Y-118500000D01*
X95875000Y-110125000D02*
X95875000Y-117375000D01*
X96500000Y-109500000D02*
X95875000Y-110125000D01*
X96100000Y-107500000D02*
X96500000Y-107900000D01*
X91920000Y-107500000D02*
X96100000Y-107500000D01*
X90000000Y-102000000D02*
X91920000Y-103920000D01*
X91920000Y-103920000D02*
X91920000Y-107500000D01*
X90000000Y-101500000D02*
X90000000Y-102000000D01*
X86000000Y-97500000D02*
X81000000Y-97500000D01*
X90000000Y-101500000D02*
X86000000Y-97500000D01*
X78920000Y-93500000D02*
X78920000Y-93920000D01*
X78920000Y-93920000D02*
X80000000Y-95000000D01*
X78920000Y-92080000D02*
X78920000Y-93500000D01*
X83500000Y-87500000D02*
X78920000Y-92080000D01*
X83500000Y-87000000D02*
X83500000Y-87500000D01*
X79651471Y-87000000D02*
X83500000Y-87000000D01*
X64000000Y-76000000D02*
X68651471Y-76000000D01*
X68651471Y-76000000D02*
X79651471Y-87000000D01*
X60411346Y-77411346D02*
X61000000Y-78000000D01*
X60411346Y-63236346D02*
X60411346Y-77411346D01*
X58200000Y-61025000D02*
X60411346Y-63236346D01*
X32800000Y-61025000D02*
X58200000Y-61025000D01*
X31500000Y-57185000D02*
X31500000Y-59725000D01*
X31500000Y-59725000D02*
X32800000Y-61025000D01*
X35751346Y-52933654D02*
X31500000Y-57185000D01*
X75040000Y-51000000D02*
X73106346Y-52933654D01*
X73106346Y-52933654D02*
X35751346Y-52933654D01*
X82917651Y-51652651D02*
X90500000Y-51652651D01*
X82000000Y-50735000D02*
X82917651Y-51652651D01*
X81735000Y-51000000D02*
X82000000Y-50735000D01*
X75040000Y-51000000D02*
X81735000Y-51000000D01*
%TO.N,+3.3V*%
X62480000Y-123560000D02*
X62480000Y-123480000D01*
X62480000Y-123480000D02*
X72960000Y-113000000D01*
X63500000Y-124580000D02*
X62480000Y-123560000D01*
X77920000Y-123500000D02*
X79920000Y-125500000D01*
X77920000Y-120000000D02*
X77920000Y-123500000D01*
X72960000Y-113460000D02*
X77920000Y-118420000D01*
X72960000Y-113000000D02*
X72960000Y-113460000D01*
X77920000Y-118420000D02*
X77920000Y-120000000D01*
X41145256Y-123620000D02*
X62340000Y-123620000D01*
X34900000Y-117374744D02*
X41145256Y-123620000D01*
X62340000Y-123620000D02*
X62480000Y-123480000D01*
X34900000Y-115905256D02*
X34900000Y-117374744D01*
X47357287Y-103447969D02*
X34900000Y-115905256D01*
X55280000Y-103447969D02*
X47357287Y-103447969D01*
X72000000Y-86727969D02*
X55280000Y-103447969D01*
X72000000Y-85000000D02*
X72000000Y-86727969D01*
X66960000Y-73460000D02*
X72000000Y-78500000D01*
X64000000Y-73460000D02*
X66960000Y-73460000D01*
X62850000Y-72310000D02*
X64000000Y-73460000D01*
X62850000Y-61296522D02*
X62850000Y-72310000D01*
X58738478Y-57185000D02*
X62850000Y-61296522D01*
X32800000Y-58485000D02*
X34100000Y-57185000D01*
X34100000Y-57185000D02*
X58738478Y-57185000D01*
%TO.N,+5V*%
X111460000Y-112500000D02*
X115847349Y-112500000D01*
X107460000Y-108500000D02*
X111460000Y-112500000D01*
X95920000Y-108500000D02*
X107460000Y-108500000D01*
X91920000Y-112500000D02*
X95920000Y-108500000D01*
X86580000Y-112500000D02*
X91920000Y-112500000D01*
X68770000Y-94690000D02*
X86580000Y-112500000D01*
X68770000Y-90523654D02*
X68770000Y-94690000D01*
X70793654Y-88500000D02*
X68770000Y-90523654D01*
X78920000Y-88500000D02*
X70793654Y-88500000D01*
X46815585Y-121150000D02*
X40510000Y-121150000D01*
X47450585Y-120515000D02*
X46815585Y-121150000D01*
X51515000Y-120515000D02*
X47450585Y-120515000D01*
X40510000Y-121150000D02*
X36000000Y-116640000D01*
X51700000Y-120700000D02*
X51515000Y-120515000D01*
X51700000Y-121140000D02*
X51700000Y-120700000D01*
X51700000Y-122490000D02*
X51700000Y-121140000D01*
X51865381Y-121865000D02*
X51700000Y-122030381D01*
X55950000Y-122456116D02*
X55358884Y-121865000D01*
X55358884Y-121865000D02*
X51865381Y-121865000D01*
X55950000Y-122490000D02*
X55950000Y-122456116D01*
X51700000Y-122030381D02*
X51700000Y-122490000D01*
X55950000Y-121140000D02*
X55950000Y-122490000D01*
X55950000Y-117450000D02*
X55950000Y-121140000D01*
X54000000Y-115500000D02*
X55950000Y-117450000D01*
X55680000Y-113820000D02*
X54000000Y-115500000D01*
X55680000Y-103613654D02*
X55680000Y-113820000D01*
X70793654Y-88500000D02*
X55680000Y-103613654D01*
X68960000Y-78540000D02*
X78920000Y-88500000D01*
X64000000Y-78540000D02*
X68960000Y-78540000D01*
X60811346Y-61096346D02*
X60811346Y-75351346D01*
X60811346Y-75351346D02*
X64000000Y-78540000D01*
X58200000Y-58485000D02*
X60811346Y-61096346D01*
%TO.N,+12V*%
X75420000Y-96500000D02*
X69920000Y-91000000D01*
X84920000Y-96500000D02*
X75420000Y-96500000D01*
X86920000Y-94500000D02*
X84920000Y-96500000D01*
X90500000Y-90920000D02*
X86920000Y-94500000D01*
X90500000Y-55152651D02*
X90500000Y-90920000D01*
X86500000Y-56000000D02*
X87347349Y-55152651D01*
X87347349Y-55152651D02*
X90500000Y-55152651D01*
X83775000Y-53275000D02*
X86500000Y-56000000D01*
X82000000Y-53275000D02*
X83775000Y-53275000D01*
X78580000Y-57500000D02*
X82000000Y-54080000D01*
X82000000Y-54080000D02*
X82000000Y-53275000D01*
%TD*%
M02*
